PathFileType	4	(X/Y/Z)	E:\Studenten\Marcel_BSc\Ayumi_25_09_2024\25-09-2024\static_00.trc
DataRate	CameraRate	NumFrames	NumMarkers	Units	OrigDataRate	OrigDataStartFrame	OrigNumFrames
200.0	200.0	5	62	mm	200.0	222	295	
Frame#	Time	LASI			RASI			RSACR			LSACR			USACR			LBAR			RBAR			RHEE			RMT1			RMT5			RMT2			LHEE			LMT1			LMT5			LMT2			LMMAL			LMFC			LLFC			LLMAL			LTIB4			LTIB2			LTIB3			LTIB1			RMMAL			RMFC			RLFC			RLMAL			RTIB1			RTIB2			RTIB3			RTHI1			RTHI4			RTHI3			RTHI2			LTHI1			LTHI4			LTHI3			LTHI2			FHD			LBHD			RBHD			C7			T10			CLAV			LSHO			RSHO			LRAD			LUL			LRFIN			RRAD			RUL			RUFIN			RLEP			RMEP			LLEP			LMEP			LDUPA			LMUPA			LUUPA			RDUPA			RUUPA			RMUPA			
		X1	Y1	Z1	X2	Y2	Z2	X3	Y3	Z3	X4	Y4	Z4	X5	Y5	Z5	X6	Y6	Z6	X7	Y7	Z7	X8	Y8	Z8	X9	Y9	Z9	X10	Y10	Z10	X11	Y11	Z11	X12	Y12	Z12	X13	Y13	Z13	X14	Y14	Z14	X15	Y15	Z15	X16	Y16	Z16	X17	Y17	Z17	X18	Y18	Z18	X19	Y19	Z19	X20	Y20	Z20	X21	Y21	Z21	X22	Y22	Z22	X23	Y23	Z23	X24	Y24	Z24	X25	Y25	Z25	X26	Y26	Z26	X27	Y27	Z27	X28	Y28	Z28	X29	Y29	Z29	X30	Y30	Z30	X31	Y31	Z31	X32	Y32	Z32	X33	Y33	Z33	X34	Y34	Z34	X35	Y35	Z35	X36	Y36	Z36	X37	Y37	Z37	X38	Y38	Z38	X39	Y39	Z39	X40	Y40	Z40	X41	Y41	Z41	X42	Y42	Z42	X43	Y43	Z43	X44	Y44	Z44	X45	Y45	Z45	X46	Y46	Z46	X47	Y47	Z47	X48	Y48	Z48	X49	Y49	Z49	X50	Y50	Z50	X51	Y51	Z51	X52	Y52	Z52	X53	Y53	Z53	X54	Y54	Z54	X55	Y55	Z55	X56	Y56	Z56	X57	Y57	Z57	X58	Y58	Z58	X59	Y59	Z59	X60	Y60	Z60	X61	Y61	Z61	X62	Y62	Z62	
222	1.105	134.05737	918.26453	-761.95496	129.88329	918.94189	-984.47485	309.56985	950.04376	-912.30194	308.75372	953.27417	-852.38226	297.91202	966.43164	-882.26691	1270.83	26.306627	346.483	1226.4249	26.282578	-1876.9608	323.07916	39.819351	-1019.665	128.17744	43.431145	-1043.3196	165.00664	34.981731	-1113.7974	140.17877	42.694321	-1079.9713	326.2695	45.829025	-745.16724	134.3902	46.323631	-736.45386	169.96844	33.419888	-662.78735	143.17566	45.911896	-698.04004	276.68954	72.942352	-778.68701	232.92421	456.93643	-829.01318	219.28993	454.00406	-721.38977	278.81857	69.139153	-700.98944	290.29187	209.60037	-691.44421	313.94107	270.89597	-691.37524	263.39297	268.13474	-684.43665	301.50879	314.30002	-687.13037	275.18259	68.348114	-994.07916	235.31375	446.55234	-935.3681	220.62915	461.32419	-1041.2284	284.67804	72.24765	-1068.6069	257.11337	319.2742	-1082.6925	307.55923	314.01001	-1077.176	276.58731	256.13431	-1081.316	241.85651	783.85486	-1060.0457	242.90891	635.15167	-1064.5228	191.48502	637.06189	-1066.5914	219.11891	697.18823	-1070.1863	238.6539	778.85858	-698.63184	236.44875	646.7688	-694.2915	185.88689	637.47986	-693.35413	200.32088	701.2121	-689.16455	130.80762	1592.9387	-775.65436	241.60396	1576.1365	-786.61517	253.16251	1571.354	-910.09503	263.60468	1391.4152	-857.92078	285.97449	1007.4565	-877.3432	141.4622	1328.0306	-872.72174	245.42432	1380.9836	-725.16144	237.21814	1396.8116	-986.80426	166.09929	1358.76	-222.70885	206.73029	1354.2701	-222.34097	152.66476	1338.092	-130.81194	241.49672	1390.0898	-1500.6019	288.41156	1383.9919	-1499.7306	235.71086	1392.3547	-1590.7717	293.83069	1330.3507	-1271.3875	255.51727	1296.7814	-1271.9552	222.06892	1300.4866	-454.08847	181.19717	1278.0758	-466.7883	238.08401	1354.1475	-506.10864	202.17764	1371.7091	-536.67535	239.23206	1362.7198	-585.31604	266.84033	1382.651	-1205.6802	257.59998	1384.2255	-1143.9674	216.573	1385.7589	-1212.1964
223	1.11	134.06586	918.27185	-761.95642	129.89847	918.95392	-984.46924	309.57483	950.03473	-912.30164	308.76904	953.27405	-852.3822	297.92264	966.41388	-882.2616	1270.8152	26.292248	346.49289	1226.4216	26.281042	-1876.9633	323.07156	39.821796	-1019.6667	128.18176	43.435875	-1043.3293	165.07301	34.819847	-1113.6786	140.1736	42.695339	-1079.9659	326.26407	45.822933	-745.17444	134.39471	46.322021	-736.4494	169.97623	33.401814	-662.78485	143.17665	45.911758	-698.0412	276.68823	72.947968	-778.69104	232.91103	456.93222	-829.02167	219.29134	453.99826	-721.39203	278.81564	69.132553	-700.98749	290.28922	209.60477	-691.44159	313.94736	270.90173	-691.3772	263.46072	268.16077	-684.49261	301.54062	314.32123	-687.08142	275.18118	68.347832	-994.0705	235.29814	446.56049	-935.36395	220.62732	461.32507	-1041.2224	284.67752	72.246826	-1068.6013	257.11203	319.2782	-1082.6919	307.5546	314.00247	-1077.1687	276.57986	256.13608	-1081.3214	241.86604	783.8573	-1060.0549	242.88768	635.14905	-1064.5098	191.46713	637.05695	-1066.5876	219.22325	697.05212	-1070.1072	238.6573	778.8642	-698.62579	236.51091	646.57214	-694.98462	185.86508	637.48755	-693.38678	200.31378	701.21179	-689.1698	130.81317	1592.9189	-775.64716	241.59502	1576.1475	-786.61755	253.17407	1571.3542	-910.10321	263.642	1391.4166	-857.91888	285.98621	1007.459	-877.33234	141.49608	1328.0377	-872.7171	245.45033	1380.9882	-725.15308	237.24342	1396.8192	-986.79742	166.09843	1358.6907	-222.70857	206.7114	1354.2043	-222.33627	152.64931	1338.0159	-130.8094	241.51743	1390.1233	-1500.5942	288.42834	1384.0321	-1499.7289	235.73906	1392.3934	-1590.755	293.84735	1330.3688	-1271.3796	255.54091	1296.8136	-1271.9502	222.07971	1300.4432	-454.09726	181.20673	1278.0381	-466.80377	238.08226	1354.1407	-506.10989	202.18599	1371.6779	-536.67651	239.24997	1362.7118	-585.32025	266.85522	1382.66	-1205.6702	257.62692	1384.2393	-1143.9583	216.60252	1385.6968	-1212.1508
224	1.115	134.07932	918.28058	-761.95471	129.91618	918.95813	-984.46722	309.59537	950.02734	-912.29132	308.77628	953.26343	-852.37823	297.93082	966.41064	-882.25647	1270.8318	26.305706	346.44781	1226.4233	26.277168	-1876.9514	323.082	39.82357	-1019.6601	128.18561	43.433441	-1043.3188	165.0724	34.810574	-1113.6764	140.17546	42.690952	-1079.9656	326.26788	45.825058	-745.16602	134.38837	46.327785	-736.44897	169.96623	33.417091	-662.79187	143.17664	45.904938	-698.04211	276.69171	72.944931	-778.69226	232.90959	456.93195	-829.02502	219.28148	453.99539	-721.38983	278.81949	69.137329	-700.98346	290.28021	209.5936	-691.43848	313.96045	270.89163	-691.37262	263.45627	268.15677	-684.49493	301.62955	314.31387	-687.01093	275.17401	68.350426	-994.06268	235.29266	446.55197	-935.35217	220.618	461.32077	-1041.2147	284.67014	72.245903	-1068.601	257.09995	319.28085	-1082.6895	307.5545	314.00027	-1077.1682	276.58395	256.13818	-1081.3214	241.88539	783.85309	-1060.0465	242.88591	635.1546	-1064.5278	191.46489	637.04718	-1066.572	219.24289	697.05072	-1070.1086	238.6586	778.86237	-698.62225	236.48421	646.57379	-694.92041	185.86887	637.49567	-693.3598	200.30231	701.20178	-689.16675	130.82225	1592.9222	-775.65387	241.62653	1576.1482	-786.61517	253.18443	1571.3693	-910.11053	263.66901	1391.426	-857.92438	285.99893	1007.4429	-877.3396	141.53615	1328.0553	-872.7074	245.48067	1380.9943	-725.15063	237.26515	1396.8239	-986.79077	166.08311	1358.4626	-222.78459	206.69998	1354.1301	-222.34807	152.6217	1337.9418	-130.82411	241.54109	1390.16	-1500.5928	288.45407	1384.0668	-1499.7135	235.76744	1392.4443	-1590.7399	293.86972	1330.3964	-1271.3656	255.54657	1296.8372	-1271.9629	222.08881	1300.4125	-454.10211	181.22241	1277.9965	-466.81668	238.09482	1354.1119	-506.11591	202.1909	1371.6544	-536.67511	239.26561	1362.6847	-585.30518	266.86716	1382.6913	-1205.6617	257.63608	1384.2665	-1143.9518	216.60881	1385.7806	-1212.1722
225	1.12	134.09329	918.289	-761.95306	129.936	918.96271	-984.46442	309.61322	950.01947	-912.2868	308.7973	953.25751	-852.3717	297.95856	966.3952	-882.25427	1270.8246	26.298683	346.4682	1226.4218	26.279449	-1876.9448	323.07886	39.819687	-1019.6531	128.17897	43.435532	-1043.33	165.00999	34.981544	-1113.7937	140.17494	42.691647	-1079.9744	326.25903	45.823746	-745.17188	134.39355	46.329182	-736.45917	169.96281	33.425987	-662.79016	143.17805	45.913132	-698.04559	276.6897	72.945137	-778.68872	232.91368	456.9281	-829.02551	219.27838	453.98621	-721.38831	278.81012	69.136292	-700.98767	290.27374	209.60313	-691.44165	313.94525	270.90692	-691.37634	263.37982	268.13657	-684.42444	301.62787	314.32919	-687.00647	275.17789	68.348732	-994.06866	235.28889	446.55142	-935.34595	220.60997	461.32773	-1041.2186	284.67908	72.252884	-1068.601	257.10077	319.2778	-1082.6874	307.54785	313.99789	-1077.1636	276.57135	256.1312	-1081.3163	241.87167	783.85583	-1060.0417	242.89233	635.15887	-1064.525	191.47948	637.04266	-1066.5559	219.21263	697.06848	-1070.1094	238.66592	778.8642	-698.61719	236.41068	646.73981	-694.2691	185.85492	637.48981	-693.36395	200.28923	701.2113	-689.16217	130.85446	1592.9114	-775.64636	241.64217	1576.1627	-786.61963	253.18546	1571.3708	-910.1048	263.68823	1391.4196	-857.92438	286.01535	1007.4353	-877.32953	141.56737	1328.0546	-872.69537	245.50728	1381.0104	-725.15686	237.29102	1396.8328	-986.78912	166.08516	1358.3975	-222.80026	206.70003	1354.0524	-222.35358	152.6084	1337.8599	-130.83949	241.57419	1390.2021	-1500.5828	288.4856	1384.1088	-1499.7126	235.79761	1392.4995	-1590.7433	293.90216	1330.4282	-1271.3729	255.58347	1296.8702	-1271.9615	222.09966	1300.3678	-454.1196	181.23314	1277.9637	-466.8382	238.1115	1354.0791	-506.11771	202.20312	1371.6324	-536.6839	239.29926	1362.6884	-585.28357	266.88077	1382.7189	-1205.6595	257.65558	1384.2866	-1143.9539	216.64366	1385.8	-1212.1648
226	1.125	134.10458	918.29779	-761.95337	129.94763	918.97375	-984.46765	309.62836	950.00623	-912.28369	308.81586	953.2475	-852.35669	297.97427	966.39081	-882.24438	1270.8162	26.294167	346.4787	1226.4277	26.285301	-1876.9543	323.07721	39.813412	-1019.6497	128.17853	43.431835	-1043.3295	165.01892	34.970547	-1113.7869	140.17104	42.686073	-1079.9683	326.26413	45.824814	-745.16327	134.39566	46.331005	-736.45422	170.14639	33.251045	-662.84308	143.18507	45.911514	-698.04584	276.68866	72.942604	-778.68762	232.90546	456.93903	-829.02032	219.28442	453.9899	-721.39136	278.81183	69.124374	-700.98273	290.2659	209.60318	-691.44556	313.94882	270.90494	-691.37036	263.3829	268.14087	-684.41418	301.64462	314.31369	-687.00842	275.18216	68.349457	-994.07367	235.2897	446.55496	-935.34363	220.60181	461.32465	-1041.2117	284.68088	72.247719	-1068.5966	257.09506	319.28012	-1082.6917	307.54291	314.00385	-1077.1716	276.56152	256.13507	-1081.322	241.88246	783.85217	-1060.0372	242.88455	635.15656	-1064.5208	191.43651	637.07349	-1066.5845	219.19319	697.07141	-1070.1266	238.66623	778.86395	-698.60791	236.47955	646.55573	-694.90063	185.84499	637.50092	-693.36383	200.26508	701.20593	-689.15186	130.8633	1592.9065	-775.63861	241.65353	1576.163	-786.61798	253.20322	1571.3882	-910.1087	263.73355	1391.4246	-857.92426	286.0304	1007.4348	-877.32422	141.6042	1328.064	-872.69922	245.53342	1381.0046	-725.15753	237.3141	1396.8473	-986.78497	166.08032	1358.3188	-222.79779	206.69987	1353.9769	-222.34183	152.60023	1337.7772	-130.84689	241.60413	1390.2512	-1500.5796	288.49615	1384.1509	-1499.7045	235.83826	1392.5472	-1590.7365	293.93076	1330.4524	-1271.3671	255.62758	1296.8979	-1271.9565	222.10709	1300.3408	-454.12558	181.24312	1277.9326	-466.84833	238.13261	1354.0455	-506.1192	202.21297	1371.6041	-536.68475	239.3053	1362.6849	-585.28979	266.90723	1382.7454	-1205.6597	257.66559	1384.3083	-1143.9481	216.66814	1385.821	-1212.1555
